# xmcd
#
# Track frame offsets:
#	150
#	16476
#	36226
#	67825
#	115751
#	138398
#	161571
#	193697
#	210287
#	237937
#
# Disc length: 3611 seconds
#
# Revision: 1
# Processed by: cddbd v1.5.2PL0 Copyright (c) Steve Scherf et al.
# Submitted via: CDmax 2.0
#
DISCID=800e190a
DTITLE=Eric Clapton - The Lost Stockholm Show (disc1)
DYEAR=1985
DGENRE=Blues
TTITLE0=Everybody Oughta Make a Change
TTITLE1=Moherless Children
TTITLE2=I Shot the Sheriff
TTITLE3=Same Old Blues
TTITLE4=Blues Power
TTITLE5=Tangled in Love
TTITLE6=Steppin' out
TTITLE7=Tulsa Time
TTITLE8=Lay Down Sally
TTITLE9=Something is Wrong with My Baby
EXTD=Eric Clapton\t\tguitar, vocals\nTim Renwick\t\tguitar\nChris Stainton\t\
EXTD=tkeyboards\nDonald 'Duck' Dunn\tbass\nJamie Oldaker\t\tdrums\nMarcy Levy
EXTD=\t\tbackground vocals\nShawn Murphy\t\tbackground vocals\n\nRecorded liv
EXTD=e at Isstadion, Stockholm, Sweden on March 15th, 1985
EXTT0=
EXTT1=
EXTT2=
EXTT3=
EXTT4=
EXTT5=
EXTT6=Shawn Murphy\tvocals
EXTT7=
EXTT8=
EXTT9=Marcy Levy\tvocals
PLAYORDER=
